<svg height="2500" viewBox="0 -2.431 251.708 302.431" width="2098" xmlns="http://www.w3.org/2000/svg"><path d="m118.676 9.412c-6.7-.957-8.494-.239-8.494-6.819.12-1.555 1.794-5.024 4.905.12 1.435 1.675 3.23 2.512 4.665 2.99-1.316-.478 8.733 1.795 15.433.48 1.675 1.196 0 3.23-.598 3.828-.12.12-6.58 1.794-12.681 1.316 0-.12-.718-1.795-.599-1.795-.12.12-2.512 0-2.631-.12m46.776 85.538c-.359-2.632-.718-5.145-1.196-7.418-3.23-11.245-7.418-23.089-18.663-28.233-4.785-1.794-13.758-1.435-15.074-12.561v-33.856l-14.356 2.87v2.154l-.239 6.46s0 2.991.12 6.82c.239 17.227 1.196 28.233-17.586 35.291-11.605 4.427-12.323 9.57-13.638 22.97-.12.957-.24 1.914-.24 2.87 0-.358-3.828 37.326 8.853 97.382 0 0 1.914 9.81 2.153 11.126.12.717.838 1.674 2.872 3.11 21.534 5.144 26.2 1.436 37.445 2.871 11.484 1.555 21.653-5.862 21.892-5.981 1.077-.36 4.905-8.016 5.384-17.826 4.666-26.2 3.47-68.07 2.273-88.05" fill="#00a8d9"/> fill="#565759"/></svg>